<?xml version="1.0" encoding="UTF-8" standalone="no"?>
<!-- Created with Inkscape (http://www.inkscape.org/) -->

<svg
   width="512"
   height="512"
   viewBox="0 0 135.46667 135.46667"
   version="1.1"
   id="svg135"
   inkscape:version="1.4-dev (0b5e71bba6, 2023-05-27, custom)"
   xml:space="preserve"
   sodipodi:docname="cube.svg"
   xmlns:inkscape="http://www.inkscape.org/namespaces/inkscape"
   xmlns:sodipodi="http://sodipodi.sourceforge.net/DTD/sodipodi-0.dtd"
   xmlns:xlink="http://www.w3.org/1999/xlink"
   xmlns="http://www.w3.org/2000/svg"
   xmlns:svg="http://www.w3.org/2000/svg"><sodipodi:namedview
     id="namedview137"
     pagecolor="#ffffff"
     bordercolor="#000000"
     borderopacity="0.25098039"
     inkscape:showpageshadow="true"
     inkscape:pageopacity="0"
     inkscape:pagecheckerboard="false"
     inkscape:deskcolor="#1e1e2e"
     inkscape:document-units="px"
     showgrid="false"
     inkscape:zoom="0.5013118"
     inkscape:cx="-17.952899"
     inkscape:cy="139.63366"
     inkscape:window-width="1894"
     inkscape:window-height="1011"
     inkscape:window-x="0"
     inkscape:window-y="0"
     inkscape:window-maximized="1"
     inkscape:current-layer="layer1" /><defs
     id="defs132"><linearGradient
       id="linearGradient8"
       inkscape:collect="always"><stop
         style="stop-color:#5c43ff;stop-opacity:1"
         offset="0"
         id="stop8" /><stop
         style="stop-color:#00ffff;stop-opacity:1"
         offset="1"
         id="stop9" /></linearGradient><linearGradient
       inkscape:collect="always"
       xlink:href="#linearGradient8"
       id="linearGradient9"
       x1="10.864453"
       y1="67.733337"
       x2="124.60222"
       y2="67.733337"
       gradientUnits="userSpaceOnUse" /></defs><g
     inkscape:label="Calque 1"
     inkscape:groupmode="layer"
     id="layer1"><g
       id="rect4"><path
         style="color:#000000;fill:#00fdbe;fill-opacity:1;stroke-linecap:round;-inkscape-stroke:none;paint-order:markers stroke fill"
         sodipodi:type="inkscape:offset"
         inkscape:radius="9.1835947"
         inkscape:original="M 45.265625 45.265625 L 45.265625 51.880859 L 45.265625 90.201172 L 90.201172 90.201172 L 90.201172 45.265625 L 45.265625 45.265625 z M 58.494141 58.494141 L 76.972656 58.494141 L 76.972656 76.972656 L 58.494141 76.972656 L 58.494141 58.494141 z "
         xlink:href="#path15"
         id="path16"
         inkscape:href="#path15"
         d="m 45.265625,36.082031 a 9.1845131,9.1845131 0 0 0 -9.183594,9.183594 v 6.615234 38.320313 a 9.1845131,9.1845131 0 0 0 9.183594,9.183594 h 44.935547 a 9.1845131,9.1845131 0 0 0 9.183594,-9.183594 V 45.265625 a 9.1845131,9.1845131 0 0 0 -9.183594,-9.183594 z m 22.412109,31.595703 h 0.111328 v 0.111328 h -0.111328 z" /><path
         style="color:#000000;fill:#000000;stroke-linecap:round;-inkscape-stroke:none;paint-order:markers stroke fill"
         d="m 45.265625,45.265625 v 6.615234 38.320313 H 90.201172 V 45.265625 Z M 58.494141,58.494141 H 76.972656 V 76.972656 H 58.494141 Z"
         id="path15" /><path
         style="color:#000000;fill:#000000;stroke-linecap:round;-inkscape-stroke:none;paint-order:markers stroke fill"
         d="m 45.265625,45.265625 v 6.615234 38.320313 H 90.201172 V 45.265625 Z M 58.494141,58.494141 H 76.972656 V 76.972656 H 58.494141 Z"
         id="path13" /><path
         style="color:#000000;fill:#00ffff;stroke-linecap:round;-inkscape-stroke:none;paint-order:markers stroke fill"
         d="M 51.880024,51.880024 H 83.586649 V 83.586649 H 51.880024 Z"
         id="path14" /></g><g
       id="path8"
       style="stroke:#00fdbe;stroke-opacity:1"><path
         style="color:#000000;fill:#00fdbe;fill-opacity:1;stroke:#00fdbe;stroke-width:0;stroke-linecap:round;stroke-linejoin:round;stroke-dasharray:none;stroke-opacity:1;paint-order:markers stroke fill"
         sodipodi:type="inkscape:offset"
         inkscape:radius="4.25"
         inkscape:original="M 10.865234 4.25 A 6.6152122 6.6152122 0 0 0 4.25 10.865234 L 4.25 124.60156 A 6.6152122 6.6152122 0 0 0 10.865234 131.2168 L 54.638672 131.2168 A 6.6152122 6.6152122 0 0 0 61.253906 124.60156 L 61.253906 105.99805 A 6.6152122 6.6152122 0 0 0 54.638672 99.384766 L 36.082031 99.384766 L 36.082031 36.082031 L 99.384766 36.082031 L 99.384766 99.384766 L 80.359375 99.384766 A 6.6152122 6.6152122 0 0 0 73.744141 105.99805 L 73.744141 124.60156 A 6.6152122 6.6152122 0 0 0 80.359375 131.2168 L 124.60156 131.2168 A 6.6152122 6.6152122 0 0 0 131.2168 124.60156 L 131.2168 10.865234 A 6.6152122 6.6152122 0 0 0 124.60156 4.25 L 10.865234 4.25 z M 17.478516 17.478516 L 117.98828 17.478516 L 117.98828 117.98828 L 86.974609 117.98828 L 86.974609 112.61328 L 105.99805 112.61328 A 6.6152122 6.6152122 0 0 0 112.61328 105.99805 L 112.61328 29.46875 A 6.6152122 6.6152122 0 0 0 105.99805 22.853516 L 29.46875 22.853516 A 6.6152122 6.6152122 0 0 0 22.853516 29.46875 L 22.853516 105.99805 A 6.6152122 6.6152122 0 0 0 29.46875 112.61328 L 48.025391 112.61328 L 48.025391 117.98828 L 17.478516 117.98828 L 17.478516 17.478516 z "
         xlink:href="#path11"
         id="path12"
         inkscape:href="#path11"
         d="M 10.865234,0 C 5.1761987,-1.8747877e-5 -1.8747923e-5,5.1761987 0,10.865234 V 124.60156 c -2.390787e-5,5.68904 5.1761954,10.86526 10.865234,10.86524 h 43.773438 c 5.689039,2e-5 10.865258,-5.1762 10.865234,-10.86524 v -18.60351 a 4.250425,4.250425 0 0 0 0,-0.002 C 65.502248,100.30813 60.32664,95.134747 54.638672,95.134766 H 40.332031 V 40.332031 H 95.134766 V 95.134766 H 80.359375 c -5.687968,-1.9e-5 -10.863576,5.173364 -10.865234,10.861324 a 4.250425,4.250425 0 0 0 0,0.002 v 18.60351 c -2.4e-5,5.68904 5.176195,10.86526 10.865234,10.86524 h 44.242185 c 5.68904,2e-5 10.86526,-5.1762 10.86524,-10.86524 V 10.865234 C 135.46682,5.1761954 130.2906,-2.3907848e-5 124.60156,0 Z m 10.863282,21.728516 h 0.425781 c -0.149194,0.141704 -0.284077,0.276587 -0.425781,0.425781 z m 91.583984,0 h 0.42578 v 0.425781 c -0.1417,-0.149194 -0.27659,-0.284077 -0.42578,-0.425781 z M 21.728516,113.3125 c 0.141704,0.14919 0.276587,0.28408 0.425781,0.42578 h -0.425781 z m 92.009764,0 v 0.42578 h -0.42578 c 0.14919,-0.1417 0.28408,-0.27659 0.42578,-0.42578 z" /><path
         style="color:#000000;fill:#00fdbe;fill-opacity:1;stroke:#00fdbe;stroke-width:0;stroke-linecap:round;stroke-linejoin:round;stroke-dasharray:none;stroke-opacity:1;paint-order:markers stroke fill"
         d="M 10.865231,4.2499964 A 6.6152122,6.6152122 0 0 0 4.2499964,10.865231 V 124.60157 a 6.6152122,6.6152122 0 0 0 6.6152346,6.61524 h 43.773442 a 6.6152122,6.6152122 0 0 0 6.615235,-6.61524 V 105.99806 A 6.6152122,6.6152122 0 0 0 54.638673,99.384771 H 36.08203 V 36.08203 H 99.384771 V 99.384771 H 80.359378 a 6.6152122,6.6152122 0 0 0 -6.615235,6.613289 v 18.60351 a 6.6152122,6.6152122 0 0 0 6.615235,6.61524 h 44.242192 a 6.6152122,6.6152122 0 0 0 6.61524,-6.61524 V 10.865231 A 6.6152122,6.6152122 0 0 0 124.60157,4.2499964 Z M 17.478513,17.478513 H 117.98828 V 117.98828 H 86.974613 v -5.37499 h 19.023447 a 6.6152122,6.6152122 0 0 0 6.61523,-6.61523 V 29.468749 a 6.6152122,6.6152122 0 0 0 -6.61523,-6.615235 H 29.468749 a 6.6152122,6.6152122 0 0 0 -6.615235,6.615235 v 76.529311 a 6.6152122,6.6152122 0 0 0 6.615235,6.61523 h 18.556643 v 5.37499 H 17.478513 Z"
         id="path11" /><path
         style="color:#000000;fill:#000000;stroke-linecap:round;stroke-linejoin:round;-inkscape-stroke:none;paint-order:markers stroke fill;stroke:none;stroke-opacity:1"
         d="M 10.865234,4.25 A 6.6152116,6.6152116 0 0 0 4.25,10.865234 V 124.60156 a 6.6152116,6.6152116 0 0 0 6.615234,6.61524 h 43.773438 a 6.6152116,6.6152116 0 0 0 6.615234,-6.61524 V 105.99805 A 6.6152116,6.6152116 0 0 0 54.638672,99.384766 H 36.082031 V 36.082031 H 99.384766 V 99.384766 H 80.359375 a 6.6152116,6.6152116 0 0 0 -6.615234,6.613284 v 18.60351 a 6.6152116,6.6152116 0 0 0 6.615234,6.61524 h 44.242185 a 6.6152116,6.6152116 0 0 0 6.61524,-6.61524 V 10.865234 A 6.6152116,6.6152116 0 0 0 124.60156,4.25 Z m 6.613282,13.228516 H 117.98828 V 117.98828 H 86.974609 v -5.375 h 19.023441 a 6.6152116,6.6152116 0 0 0 6.61523,-6.61523 v -76.5293 a 6.6152116,6.6152116 0 0 0 -6.61523,-6.615234 h -76.5293 a 6.6152116,6.6152116 0 0 0 -6.615234,6.615234 v 76.5293 a 6.6152116,6.6152116 0 0 0 6.615234,6.61523 h 18.556641 v 5.375 H 17.478516 Z"
         id="path9" /><path
         style="color:#000000;fill:url(#linearGradient9);stroke-linecap:round;stroke-linejoin:round;-inkscape-stroke:none;paint-order:markers stroke fill;stroke:none;stroke-opacity:1"
         d="M 10.864453,10.864453 V 124.60222 H 54.63956 V 105.9987 H 29.467969 V 29.467969 H 105.9987 V 105.9987 H 80.359438 v 18.60352 H 124.60222 V 10.864453 Z"
         id="path10" /></g></g></svg>
